<svg xmlns="http://www.w3.org/2000/svg" width="1000" height="300" viewBox="0 0 1000 300">
<rect width="1000" height="300" fill="#F5F3EE"/>
<text x="40" y="50" font-family="Arial,sans-serif" font-size="23" font-weight="700" fill="#07111F">MAP SERIES · EVIDENCE CHAIN</text>
<text x="40" y="78" font-family="Arial,sans-serif" font-size="13" fill="#647181">01.00–01.06 publication sequence</text><rect x="40" y="115" width="112" height="54" rx="7" fill="#102338"/><text x="96" y="138" text-anchor="middle" font-family="Arial,sans-serif" font-size="12" font-weight="700" fill="#FFFFFF">01.00</text><text x="96" y="157" text-anchor="middle" font-family="Arial,sans-serif" font-size="8" fill="#FFFFFF">STUDY AREA & NET</text><rect x="175" y="115" width="112" height="54" rx="7" fill="#102338"/><text x="231" y="138" text-anchor="middle" font-family="Arial,sans-serif" font-size="12" font-weight="700" fill="#FFFFFF">01.01</text><text x="231" y="157" text-anchor="middle" font-family="Arial,sans-serif" font-size="8" fill="#FFFFFF">WALKING CATCHMEN</text><rect x="310" y="115" width="112" height="54" rx="7" fill="#102338"/><text x="366" y="138" text-anchor="middle" font-family="Arial,sans-serif" font-size="12" font-weight="700" fill="#FFFFFF">01.02</text><text x="366" y="157" text-anchor="middle" font-family="Arial,sans-serif" font-size="8" fill="#FFFFFF">WALKING ACCESSIB</text><rect x="445" y="115" width="112" height="54" rx="7" fill="#102338"/><text x="501" y="138" text-anchor="middle" font-family="Arial,sans-serif" font-size="12" font-weight="700" fill="#FFFFFF">01.03</text><text x="501" y="157" text-anchor="middle" font-family="Arial,sans-serif" font-size="8" fill="#FFFFFF">SERVICE ACCESSIB</text><rect x="580" y="115" width="112" height="54" rx="7" fill="#102338"/><text x="636" y="138" text-anchor="middle" font-family="Arial,sans-serif" font-size="12" font-weight="700" fill="#FFFFFF">01.04</text><text x="636" y="157" text-anchor="middle" font-family="Arial,sans-serif" font-size="8" fill="#FFFFFF">POPULATION VULNE</text><rect x="715" y="115" width="112" height="54" rx="7" fill="#102338"/><text x="771" y="138" text-anchor="middle" font-family="Arial,sans-serif" font-size="12" font-weight="700" fill="#FFFFFF">01.05</text><text x="771" y="157" text-anchor="middle" font-family="Arial,sans-serif" font-size="8" fill="#FFFFFF">COMPOSITE ACCESS</text><rect x="850" y="115" width="112" height="54" rx="7" fill="#102338"/><text x="906" y="138" text-anchor="middle" font-family="Arial,sans-serif" font-size="12" font-weight="700" fill="#FFFFFF">01.06</text><text x="906" y="157" text-anchor="middle" font-family="Arial,sans-serif" font-size="8" fill="#FFFFFF">EQUITY HOTSPOTS</text></svg>